<svg width="1280" height="640" viewBox="0 0 1280 640" fill="none" xmlns="http://www.w3.org/2000/svg">
<rect width="1280" height="640" fill="#3E3E3E"/>
<rect x="924.59" y="180.645" width="17.82" height="156.355" fill="#DEDEDE"/>
<path d="M933.5 104L976.368 180.645H890.632L933.5 104Z" fill="#DEDEDE"/>
<rect width="17.82" height="157.026" transform="matrix(1 0 0 -1 924.59 499.026)" fill="#DEDEDE"/>
<path d="M686 332L1176.5 338.5L686 349V332Z" fill="#6FC1B3"/>
<path d="M933.5 576L976.368 499.027H890.632L933.5 576Z" fill="#DEDEDE"/>
<path d="M138.46 208H113.63C112.503 208 111.94 207.48 111.94 206.44V200.85C111.94 199.81 112.503 199.29 113.63 199.29H120.78V152.75H113.63C112.503 152.75 111.94 152.23 111.94 151.19V145.6C111.94 144.56 112.503 144.04 113.63 144.04H128.84C129.967 144.04 130.53 144.56 130.53 145.6V161.85H130.92C131.18 160.463 132.09 158.557 133.65 156.13C135.21 153.703 136.9 151.71 138.72 150.15C140.627 148.503 143.313 147.03 146.78 145.73C150.333 144.43 154.32 143.78 158.74 143.78C159.867 143.78 160.43 144.343 160.43 145.47V152.36C160.43 153.487 159.867 154.05 158.74 154.05H156.01C148.557 154.05 142.62 156.433 138.2 161.2C133.78 165.967 131.57 171.383 131.57 177.45V199.29H138.46C139.587 199.29 140.15 199.81 140.15 200.85V206.44C140.15 207.48 139.587 208 138.46 208ZM222.476 177.32H175.676C176.022 184.513 178.276 190.06 182.436 193.96C186.682 197.86 191.449 199.81 196.736 199.81C202.022 199.81 206.529 198.683 210.256 196.43C214.069 194.177 216.626 191.967 217.926 189.8C218.619 188.933 219.399 188.803 220.266 189.41L223.776 192.92C224.296 193.44 224.556 193.917 224.556 194.35C224.556 194.697 224.339 195.173 223.906 195.78C223.559 196.387 222.779 197.34 221.566 198.64C220.352 199.94 218.619 201.413 216.366 203.06C214.199 204.707 211.339 206.093 207.786 207.22C204.319 208.347 200.592 208.91 196.606 208.91C187.506 208.91 179.879 205.92 173.726 199.94C167.659 193.96 164.626 185.943 164.626 175.89C164.626 165.75 167.659 157.777 173.726 151.97C179.792 146.077 187.202 143.13 195.956 143.13C204.796 143.13 211.729 145.99 216.756 151.71C221.782 157.343 224.296 164.97 224.296 174.59C224.296 174.937 224.296 175.283 224.296 175.63C224.296 176.757 223.689 177.32 222.476 177.32ZM213.506 169.39C213.246 164.017 211.556 159.727 208.436 156.52C205.316 153.313 201.156 151.71 195.956 151.71C190.756 151.71 186.292 153.183 182.566 156.13C178.839 159.077 176.629 163.497 175.936 169.39H213.506ZM298.28 208H286.97C283.243 208 281.38 206.18 281.38 202.54V195.91H281.12C274.793 204.663 266.343 209.04 255.77 209.04C249.53 209.04 244.416 207.437 240.43 204.23C236.443 200.937 234.45 196.517 234.45 190.97C234.45 183.863 237.526 178.663 243.68 175.37C249.92 171.99 258.456 170.3 269.29 170.3H280.21V168.74C280.21 157.907 274.576 152.49 263.31 152.49C258.023 152.49 254.21 153.01 251.87 154.05C249.53 155.003 247.84 155.783 246.8 156.39C245.846 156.997 245.11 157.473 244.59 157.82C243.29 158.86 242.336 158.947 241.73 158.08L238.09 153.53C237.483 152.837 237.57 152.143 238.35 151.45C239.823 149.543 242.856 147.68 247.45 145.86C252.043 144.04 257.46 143.13 263.7 143.13C281.9 143.13 291 151.797 291 169.13V199.29H298.28C299.32 199.29 299.84 199.81 299.84 200.85V206.44C299.84 207.48 299.32 208 298.28 208ZM280.21 178.1H269.94C264.913 178.1 260.753 178.36 257.46 178.88C254.166 179.4 251.35 180.527 249.01 182.26C246.756 183.993 245.63 186.377 245.63 189.41C245.63 192.443 246.843 194.957 249.27 196.95C251.783 198.857 255.033 199.81 259.02 199.81C267.426 199.81 274.49 196.083 280.21 188.63V178.1ZM366.22 192.92C366.74 193.353 367 193.787 367 194.22C367 194.567 366.783 195.087 366.35 195.78C366.003 196.387 365.18 197.34 363.88 198.64C362.667 199.94 360.933 201.413 358.68 203.06C356.513 204.707 353.653 206.093 350.1 207.22C346.633 208.347 342.907 208.91 338.92 208.91C329.82 208.91 322.193 205.92 316.04 199.94C309.973 193.96 306.94 185.943 306.94 175.89C306.94 165.75 309.973 157.777 316.04 151.97C322.193 146.077 329.69 143.13 338.53 143.13C347.37 143.13 354.043 146.337 358.55 152.75H358.68L358.55 145.6C358.55 144.473 359.113 143.91 360.24 143.91H365.18C366.22 143.91 366.74 144.473 366.74 145.6V167.7C366.74 168.74 366.22 169.26 365.18 169.26H359.2C358.16 169.26 357.64 168.74 357.64 167.7V165.49C357.553 162.37 355.777 159.38 352.31 156.52C348.843 153.66 344.423 152.23 339.05 152.23C333.763 152.23 328.91 154.353 324.49 158.6C320.07 162.847 317.86 168.653 317.86 176.02C317.86 183.3 320.027 189.107 324.36 193.44C328.693 197.687 333.547 199.81 338.92 199.81C344.293 199.81 348.843 198.683 352.57 196.43C356.383 194.09 358.94 191.837 360.24 189.67C360.847 188.63 361.583 188.5 362.45 189.28L366.22 192.92ZM420.438 201.37C420.785 201.717 420.958 202.107 420.958 202.54C420.958 202.887 420.698 203.32 420.178 203.84C416.365 207.22 411.555 208.91 405.748 208.91C400.028 208.91 395.305 207.047 391.578 203.32C387.938 199.507 386.118 194.003 386.118 186.81V152.75H378.838C377.625 152.75 377.018 152.187 377.018 151.06V145.73C377.018 144.603 377.625 144.04 378.838 144.04H386.118V130.91C386.118 129.697 386.725 129.09 387.938 129.09H395.218C396.345 129.09 396.908 129.697 396.908 130.91V144.04H413.418C414.631 144.04 415.238 144.603 415.238 145.73V151.06C415.238 152.187 414.631 152.75 413.418 152.75H396.908V186.55C396.908 190.883 397.861 194.177 399.768 196.43C401.761 198.597 404.361 199.68 407.568 199.68C410.861 199.68 413.331 198.857 414.978 197.21C415.845 196.43 416.625 196.473 417.318 197.34L420.438 201.37ZM139.76 569.25H113.63C112.503 569.25 111.94 568.73 111.94 567.69V562.1C111.94 561.06 112.503 560.54 113.63 560.54H120.91V484.75H113.89C112.763 484.75 112.2 484.23 112.2 483.19V477.6C112.2 476.56 112.763 476.04 113.89 476.04H129.1C130.227 476.04 130.79 476.56 130.79 477.6L130.66 487.87H130.79C132.437 484.317 135.08 481.327 138.72 478.9C142.447 476.387 146.997 475.13 152.37 475.13C161.123 475.13 168.187 478.12 173.56 484.1C178.933 489.993 181.62 497.88 181.62 507.76C181.62 517.553 178.977 525.527 173.69 531.68C168.403 537.833 161.34 540.91 152.5 540.91C147.127 540.91 142.62 539.697 138.98 537.27C135.427 534.757 132.87 531.723 131.31 528.17H130.92C131.18 530.943 131.31 532.937 131.31 534.15V560.54H139.76C140.887 560.54 141.45 561.06 141.45 562.1V567.69C141.45 568.73 140.887 569.25 139.76 569.25ZM131.05 508.28C131.05 515.82 133 521.627 136.9 525.7C140.887 529.773 145.653 531.81 151.2 531.81C156.833 531.81 161.513 529.643 165.24 525.31C169.053 520.89 170.96 515.127 170.96 508.02C170.96 500.827 169.053 495.063 165.24 490.73C161.513 486.397 156.833 484.23 151.2 484.23C145.567 484.23 140.8 486.353 136.9 490.6C133 494.847 131.05 500.74 131.05 508.28ZM254.608 540H243.298C239.571 540 237.708 538.18 237.708 534.54V527.91H237.448C231.121 536.663 222.671 541.04 212.098 541.04C205.858 541.04 200.745 539.437 196.758 536.23C192.771 532.937 190.778 528.517 190.778 522.97C190.778 515.863 193.855 510.663 200.008 507.37C206.248 503.99 214.785 502.3 225.618 502.3H236.538V500.74C236.538 489.907 230.905 484.49 219.638 484.49C214.351 484.49 210.538 485.01 208.198 486.05C205.858 487.003 204.168 487.783 203.128 488.39C202.175 488.997 201.438 489.473 200.918 489.82C199.618 490.86 198.665 490.947 198.058 490.08L194.418 485.53C193.811 484.837 193.898 484.143 194.678 483.45C196.151 481.543 199.185 479.68 203.778 477.86C208.371 476.04 213.788 475.13 220.028 475.13C238.228 475.13 247.328 483.797 247.328 501.13V531.29H254.608C255.648 531.29 256.168 531.81 256.168 532.85V538.44C256.168 539.48 255.648 540 254.608 540ZM236.538 510.1H226.268C221.241 510.1 217.081 510.36 213.788 510.88C210.495 511.4 207.678 512.527 205.338 514.26C203.085 515.993 201.958 518.377 201.958 521.41C201.958 524.443 203.171 526.957 205.598 528.95C208.111 530.857 211.361 531.81 215.348 531.81C223.755 531.81 230.818 528.083 236.538 520.63V510.1ZM335.094 540H322.744C319.017 540 317.154 538.18 317.154 534.54V500.35C317.154 495.323 315.941 491.423 313.514 488.65C311.087 485.877 307.534 484.49 302.854 484.49C296.181 484.49 290.981 487.22 287.254 492.68C286.821 493.2 286.257 494.153 285.564 495.54V531.29H292.454C293.581 531.29 294.144 531.81 294.144 532.85V538.44C294.144 539.48 293.581 540 292.454 540H267.624C266.497 540 265.934 539.48 265.934 538.44V532.85C265.934 531.81 266.497 531.29 267.624 531.29H274.774V484.75H267.624C266.497 484.75 265.934 484.23 265.934 483.19V477.6C265.934 476.56 266.497 476.04 267.624 476.04H282.834C283.961 476.04 284.524 476.56 284.524 477.6L284.264 486.44H284.654C289.161 478.9 296.137 475.13 305.584 475.13C312.517 475.13 317.934 477.167 321.834 481.24C325.734 485.313 327.727 490.817 327.814 497.75V531.29H335.094C336.221 531.29 336.784 531.81 336.784 532.85V538.44C336.784 539.48 336.221 540 335.094 540ZM401.099 509.32H354.299C354.645 516.513 356.899 522.06 361.059 525.96C365.305 529.86 370.072 531.81 375.359 531.81C380.645 531.81 385.152 530.683 388.879 528.43C392.692 526.177 395.249 523.967 396.549 521.8C397.242 520.933 398.022 520.803 398.889 521.41L402.399 524.92C402.919 525.44 403.179 525.917 403.179 526.35C403.179 526.697 402.962 527.173 402.529 527.78C402.182 528.387 401.402 529.34 400.189 530.64C398.975 531.94 397.242 533.413 394.989 535.06C392.822 536.707 389.962 538.093 386.409 539.22C382.942 540.347 379.215 540.91 375.229 540.91C366.129 540.91 358.502 537.92 352.349 531.94C346.282 525.96 343.249 517.943 343.249 507.89C343.249 497.75 346.282 489.777 352.349 483.97C358.415 478.077 365.825 475.13 374.579 475.13C383.419 475.13 390.352 477.99 395.379 483.71C400.405 489.343 402.919 496.97 402.919 506.59C402.919 506.937 402.919 507.283 402.919 507.63C402.919 508.757 402.312 509.32 401.099 509.32ZM392.129 501.39C391.869 496.017 390.179 491.727 387.059 488.52C383.939 485.313 379.779 483.71 374.579 483.71C369.379 483.71 364.915 485.183 361.189 488.13C357.462 491.077 355.252 495.497 354.559 501.39H392.129Z" fill="#DEDEDE"/>
<path d="M171.22 358.92C171.74 359.353 172 359.787 172 360.22C172 360.567 171.783 361.087 171.35 361.78C171.003 362.387 170.18 363.34 168.88 364.64C167.667 365.94 165.933 367.413 163.68 369.06C161.513 370.707 158.653 372.093 155.1 373.22C151.633 374.347 147.907 374.91 143.92 374.91C134.82 374.91 127.193 371.92 121.04 365.94C114.973 359.96 111.94 351.943 111.94 341.89C111.94 331.75 114.973 323.777 121.04 317.97C127.193 312.077 134.69 309.13 143.53 309.13C152.37 309.13 159.043 312.337 163.55 318.75H163.68L163.55 311.6C163.55 310.473 164.113 309.91 165.24 309.91H170.18C171.22 309.91 171.74 310.473 171.74 311.6V333.7C171.74 334.74 171.22 335.26 170.18 335.26H164.2C163.16 335.26 162.64 334.74 162.64 333.7V331.49C162.553 328.37 160.777 325.38 157.31 322.52C153.843 319.66 149.423 318.23 144.05 318.23C138.763 318.23 133.91 320.353 129.49 324.6C125.07 328.847 122.86 334.653 122.86 342.02C122.86 349.3 125.027 355.107 129.36 359.44C133.693 363.687 138.547 365.81 143.92 365.81C149.293 365.81 153.843 364.683 157.57 362.43C161.383 360.09 163.94 357.837 165.24 355.67C165.847 354.63 166.583 354.5 167.45 355.28L171.22 358.92ZM237.658 365.81C231.591 371.877 223.835 374.91 214.388 374.91C204.941 374.91 197.185 371.92 191.118 365.94C185.051 359.873 182.018 351.857 182.018 341.89C182.018 331.837 185.095 323.863 191.248 317.97C197.401 312.077 205.115 309.13 214.388 309.13C223.748 309.13 231.461 312.12 237.528 318.1C243.681 323.993 246.758 331.923 246.758 341.89C246.758 351.77 243.725 359.743 237.658 365.81ZM192.938 341.89C192.938 348.997 195.018 354.76 199.178 359.18C203.338 363.6 208.408 365.81 214.388 365.81C220.455 365.81 225.568 363.6 229.728 359.18C233.888 354.76 235.968 348.997 235.968 341.89C235.968 334.783 233.845 329.063 229.598 324.73C225.438 320.397 220.411 318.23 214.518 318.23C208.625 318.23 203.555 320.397 199.308 324.73C195.061 329.063 192.938 334.783 192.938 341.89ZM281.409 374H256.579C255.453 374 254.889 373.48 254.889 372.44V366.85C254.889 365.81 255.453 365.29 256.579 365.29H263.729V289.37H256.579C255.453 289.37 254.889 288.85 254.889 287.81V282.22C254.889 281.18 255.453 280.66 256.579 280.66H271.009C273.349 280.66 274.519 281.743 274.519 283.91V365.29H281.409C282.536 365.29 283.099 365.81 283.099 366.85V372.44C283.099 373.48 282.536 374 281.409 374ZM319.495 374H294.665C293.538 374 292.975 373.48 292.975 372.44V366.85C292.975 365.81 293.538 365.29 294.665 365.29H301.815V289.37H294.665C293.538 289.37 292.975 288.85 292.975 287.81V282.22C292.975 281.18 293.538 280.66 294.665 280.66H309.095C311.435 280.66 312.605 281.743 312.605 283.91V365.29H319.495C320.622 365.29 321.185 365.81 321.185 366.85V372.44C321.185 373.48 320.622 374 319.495 374ZM394.764 374H383.454C379.727 374 377.864 372.18 377.864 368.54V361.91H377.604C371.277 370.663 362.827 375.04 352.254 375.04C346.014 375.04 340.901 373.437 336.914 370.23C332.927 366.937 330.934 362.517 330.934 356.97C330.934 349.863 334.011 344.663 340.164 341.37C346.404 337.99 354.941 336.3 365.774 336.3H376.694V334.74C376.694 323.907 371.061 318.49 359.794 318.49C354.507 318.49 350.694 319.01 348.354 320.05C346.014 321.003 344.324 321.783 343.284 322.39C342.331 322.997 341.594 323.473 341.074 323.82C339.774 324.86 338.821 324.947 338.214 324.08L334.574 319.53C333.967 318.837 334.054 318.143 334.834 317.45C336.307 315.543 339.341 313.68 343.934 311.86C348.527 310.04 353.944 309.13 360.184 309.13C378.384 309.13 387.484 317.797 387.484 335.13V365.29H394.764C395.804 365.29 396.324 365.81 396.324 366.85V372.44C396.324 373.48 395.804 374 394.764 374ZM376.694 344.1H366.424C361.397 344.1 357.237 344.36 353.944 344.88C350.651 345.4 347.834 346.527 345.494 348.26C343.241 349.993 342.114 352.377 342.114 355.41C342.114 358.443 343.327 360.957 345.754 362.95C348.267 364.857 351.517 365.81 355.504 365.81C363.911 365.81 370.974 362.083 376.694 354.63V344.1ZM433.656 403.25H407.526C406.4 403.25 405.836 402.73 405.836 401.69V396.1C405.836 395.06 406.4 394.54 407.526 394.54H414.806V318.75H407.786C406.66 318.75 406.096 318.23 406.096 317.19V311.6C406.096 310.56 406.66 310.04 407.786 310.04H422.996C424.123 310.04 424.686 310.56 424.686 311.6L424.556 321.87H424.686C426.333 318.317 428.976 315.327 432.616 312.9C436.343 310.387 440.893 309.13 446.266 309.13C455.02 309.13 462.083 312.12 467.456 318.1C472.83 323.993 475.516 331.88 475.516 341.76C475.516 351.553 472.873 359.527 467.586 365.68C462.3 371.833 455.236 374.91 446.396 374.91C441.023 374.91 436.516 373.697 432.876 371.27C429.323 368.757 426.766 365.723 425.206 362.17H424.816C425.076 364.943 425.206 366.937 425.206 368.15V394.54H433.656C434.783 394.54 435.346 395.06 435.346 396.1V401.69C435.346 402.73 434.783 403.25 433.656 403.25ZM424.946 342.28C424.946 349.82 426.896 355.627 430.796 359.7C434.783 363.773 439.55 365.81 445.096 365.81C450.73 365.81 455.41 363.643 459.136 359.31C462.95 354.89 464.856 349.127 464.856 342.02C464.856 334.827 462.95 329.063 459.136 324.73C455.41 320.397 450.73 318.23 445.096 318.23C439.463 318.23 434.696 320.353 430.796 324.6C426.896 328.847 424.946 334.74 424.946 342.28ZM514.042 374.91C508.236 374.91 503.599 373.827 500.132 371.66C496.666 369.493 494.499 367.457 493.632 365.55H493.372C493.546 369.797 493.632 372.05 493.632 372.31C493.632 373.437 493.026 374 491.812 374H487.392C486.266 374 485.702 373.437 485.702 372.31V352.81C485.702 351.683 486.266 351.12 487.392 351.12H492.462C493.676 351.12 494.282 351.683 494.282 352.81V355.41C495.149 358.01 496.969 360.393 499.742 362.56C503.036 365.16 507.152 366.46 512.092 366.46C521.799 366.46 526.652 363.08 526.652 356.32C526.652 353.98 525.309 352.117 522.622 350.73C519.936 349.257 516.642 348.043 512.742 347.09C508.929 346.137 505.116 345.053 501.302 343.84C497.489 342.627 494.239 340.677 491.552 337.99C488.866 335.217 487.522 331.75 487.522 327.59C487.522 321.957 489.559 317.493 493.632 314.2C497.706 310.82 502.906 309.13 509.232 309.13C517.812 309.13 523.966 311.643 527.692 316.67H527.952C527.779 313.55 527.692 311.947 527.692 311.86C527.692 310.733 528.256 310.17 529.382 310.17H533.542C534.669 310.17 535.232 310.733 535.232 311.86V329.93C535.232 331.057 534.669 331.62 533.542 331.62H528.472C527.259 331.62 526.652 331.057 526.652 329.93V328.11C526.652 325.77 525.266 323.473 522.492 321.22C519.806 318.88 516.296 317.71 511.962 317.71C507.629 317.71 504.249 318.62 501.822 320.44C499.396 322.26 498.182 324.643 498.182 327.59C498.182 330.45 499.526 332.703 502.212 334.35C504.986 335.91 508.322 337.167 512.222 338.12C516.122 338.987 520.022 339.983 523.922 341.11C527.822 342.237 531.116 344.1 533.802 346.7C536.576 349.3 537.962 352.897 537.962 357.49C537.962 362.083 535.969 366.157 531.982 369.71C528.082 373.177 522.102 374.91 514.042 374.91ZM606.255 343.32H559.455C559.802 350.513 562.055 356.06 566.215 359.96C570.462 363.86 575.228 365.81 580.515 365.81C585.802 365.81 590.308 364.683 594.035 362.43C597.848 360.177 600.405 357.967 601.705 355.8C602.398 354.933 603.178 354.803 604.045 355.41L607.555 358.92C608.075 359.44 608.335 359.917 608.335 360.35C608.335 360.697 608.118 361.173 607.685 361.78C607.338 362.387 606.558 363.34 605.345 364.64C604.132 365.94 602.398 367.413 600.145 369.06C597.978 370.707 595.118 372.093 591.565 373.22C588.098 374.347 584.372 374.91 580.385 374.91C571.285 374.91 563.658 371.92 557.505 365.94C551.438 359.96 548.405 351.943 548.405 341.89C548.405 331.75 551.438 323.777 557.505 317.97C563.572 312.077 570.982 309.13 579.735 309.13C588.575 309.13 595.508 311.99 600.535 317.71C605.562 323.343 608.075 330.97 608.075 340.59C608.075 340.937 608.075 341.283 608.075 341.63C608.075 342.757 607.468 343.32 606.255 343.32ZM597.285 335.39C597.025 330.017 595.335 325.727 592.215 322.52C589.095 319.313 584.935 317.71 579.735 317.71C574.535 317.71 570.072 319.183 566.345 322.13C562.618 325.077 560.408 329.497 559.715 335.39H597.285Z" fill="#6FC1B3"/>
</svg>
