<svg width="700" height="700" viewBox="0 0 700 700" fill="none" xmlns="http://www.w3.org/2000/svg">
<rect width="700" height="700" fill="#3E3E3E"/>
<path d="M112.46 215H87.63C86.5033 215 85.94 214.48 85.94 213.44V207.85C85.94 206.81 86.5033 206.29 87.63 206.29H94.78V159.75H87.63C86.5033 159.75 85.94 159.23 85.94 158.19V152.6C85.94 151.56 86.5033 151.04 87.63 151.04H102.84C103.967 151.04 104.53 151.56 104.53 152.6V168.85H104.92C105.18 167.463 106.09 165.557 107.65 163.13C109.21 160.703 110.9 158.71 112.72 157.15C114.627 155.503 117.313 154.03 120.78 152.73C124.333 151.43 128.32 150.78 132.74 150.78C133.867 150.78 134.43 151.343 134.43 152.47V159.36C134.43 160.487 133.867 161.05 132.74 161.05H130.01C122.557 161.05 116.62 163.433 112.2 168.2C107.78 172.967 105.57 178.383 105.57 184.45V206.29H112.46C113.587 206.29 114.15 206.81 114.15 207.85V213.44C114.15 214.48 113.587 215 112.46 215ZM196.476 184.32H149.676C150.022 191.513 152.276 197.06 156.436 200.96C160.682 204.86 165.449 206.81 170.736 206.81C176.022 206.81 180.529 205.683 184.256 203.43C188.069 201.177 190.626 198.967 191.926 196.8C192.619 195.933 193.399 195.803 194.266 196.41L197.776 199.92C198.296 200.44 198.556 200.917 198.556 201.35C198.556 201.697 198.339 202.173 197.906 202.78C197.559 203.387 196.779 204.34 195.566 205.64C194.352 206.94 192.619 208.413 190.366 210.06C188.199 211.707 185.339 213.093 181.786 214.22C178.319 215.347 174.592 215.91 170.606 215.91C161.506 215.91 153.879 212.92 147.726 206.94C141.659 200.96 138.626 192.943 138.626 182.89C138.626 172.75 141.659 164.777 147.726 158.97C153.792 153.077 161.202 150.13 169.956 150.13C178.796 150.13 185.729 152.99 190.756 158.71C195.782 164.343 198.296 171.97 198.296 181.59C198.296 181.937 198.296 182.283 198.296 182.63C198.296 183.757 197.689 184.32 196.476 184.32ZM187.506 176.39C187.246 171.017 185.556 166.727 182.436 163.52C179.316 160.313 175.156 158.71 169.956 158.71C164.756 158.71 160.292 160.183 156.566 163.13C152.839 166.077 150.629 170.497 149.936 176.39H187.506ZM272.28 215H260.97C257.243 215 255.38 213.18 255.38 209.54V202.91H255.12C248.793 211.663 240.343 216.04 229.77 216.04C223.53 216.04 218.416 214.437 214.43 211.23C210.443 207.937 208.45 203.517 208.45 197.97C208.45 190.863 211.526 185.663 217.68 182.37C223.92 178.99 232.456 177.3 243.29 177.3H254.21V175.74C254.21 164.907 248.576 159.49 237.31 159.49C232.023 159.49 228.21 160.01 225.87 161.05C223.53 162.003 221.84 162.783 220.8 163.39C219.846 163.997 219.11 164.473 218.59 164.82C217.29 165.86 216.336 165.947 215.73 165.08L212.09 160.53C211.483 159.837 211.57 159.143 212.35 158.45C213.823 156.543 216.856 154.68 221.45 152.86C226.043 151.04 231.46 150.13 237.7 150.13C255.9 150.13 265 158.797 265 176.13V206.29H272.28C273.32 206.29 273.84 206.81 273.84 207.85V213.44C273.84 214.48 273.32 215 272.28 215ZM254.21 185.1H243.94C238.913 185.1 234.753 185.36 231.46 185.88C228.166 186.4 225.35 187.527 223.01 189.26C220.756 190.993 219.63 193.377 219.63 196.41C219.63 199.443 220.843 201.957 223.27 203.95C225.783 205.857 229.033 206.81 233.02 206.81C241.426 206.81 248.49 203.083 254.21 195.63V185.1ZM340.22 199.92C340.74 200.353 341 200.787 341 201.22C341 201.567 340.783 202.087 340.35 202.78C340.003 203.387 339.18 204.34 337.88 205.64C336.667 206.94 334.933 208.413 332.68 210.06C330.513 211.707 327.653 213.093 324.1 214.22C320.633 215.347 316.907 215.91 312.92 215.91C303.82 215.91 296.193 212.92 290.04 206.94C283.973 200.96 280.94 192.943 280.94 182.89C280.94 172.75 283.973 164.777 290.04 158.97C296.193 153.077 303.69 150.13 312.53 150.13C321.37 150.13 328.043 153.337 332.55 159.75H332.68L332.55 152.6C332.55 151.473 333.113 150.91 334.24 150.91H339.18C340.22 150.91 340.74 151.473 340.74 152.6V174.7C340.74 175.74 340.22 176.26 339.18 176.26H333.2C332.16 176.26 331.64 175.74 331.64 174.7V172.49C331.553 169.37 329.777 166.38 326.31 163.52C322.843 160.66 318.423 159.23 313.05 159.23C307.763 159.23 302.91 161.353 298.49 165.6C294.07 169.847 291.86 175.653 291.86 183.02C291.86 190.3 294.027 196.107 298.36 200.44C302.693 204.687 307.547 206.81 312.92 206.81C318.293 206.81 322.843 205.683 326.57 203.43C330.383 201.09 332.94 198.837 334.24 196.67C334.847 195.63 335.583 195.5 336.45 196.28L340.22 199.92ZM394.438 208.37C394.785 208.717 394.958 209.107 394.958 209.54C394.958 209.887 394.698 210.32 394.178 210.84C390.365 214.22 385.555 215.91 379.748 215.91C374.028 215.91 369.305 214.047 365.578 210.32C361.938 206.507 360.118 201.003 360.118 193.81V159.75H352.838C351.625 159.75 351.018 159.187 351.018 158.06V152.73C351.018 151.603 351.625 151.04 352.838 151.04H360.118V137.91C360.118 136.697 360.725 136.09 361.938 136.09H369.218C370.345 136.09 370.908 136.697 370.908 137.91V151.04H387.418C388.631 151.04 389.238 151.603 389.238 152.73V158.06C389.238 159.187 388.631 159.75 387.418 159.75H370.908V193.55C370.908 197.883 371.861 201.177 373.768 203.43C375.761 205.597 378.361 206.68 381.568 206.68C384.861 206.68 387.331 205.857 388.978 204.21C389.845 203.43 390.625 203.473 391.318 204.34L394.438 208.37ZM113.76 576.25H87.63C86.5033 576.25 85.94 575.73 85.94 574.69V569.1C85.94 568.06 86.5033 567.54 87.63 567.54H94.91V491.75H87.89C86.7633 491.75 86.2 491.23 86.2 490.19V484.6C86.2 483.56 86.7633 483.04 87.89 483.04H103.1C104.227 483.04 104.79 483.56 104.79 484.6L104.66 494.87H104.79C106.437 491.317 109.08 488.327 112.72 485.9C116.447 483.387 120.997 482.13 126.37 482.13C135.123 482.13 142.187 485.12 147.56 491.1C152.933 496.993 155.62 504.88 155.62 514.76C155.62 524.553 152.977 532.527 147.69 538.68C142.403 544.833 135.34 547.91 126.5 547.91C121.127 547.91 116.62 546.697 112.98 544.27C109.427 541.757 106.87 538.723 105.31 535.17H104.92C105.18 537.943 105.31 539.937 105.31 541.15V567.54H113.76C114.887 567.54 115.45 568.06 115.45 569.1V574.69C115.45 575.73 114.887 576.25 113.76 576.25ZM105.05 515.28C105.05 522.82 107 528.627 110.9 532.7C114.887 536.773 119.653 538.81 125.2 538.81C130.833 538.81 135.513 536.643 139.24 532.31C143.053 527.89 144.96 522.127 144.96 515.02C144.96 507.827 143.053 502.063 139.24 497.73C135.513 493.397 130.833 491.23 125.2 491.23C119.567 491.23 114.8 493.353 110.9 497.6C107 501.847 105.05 507.74 105.05 515.28ZM228.608 547H217.298C213.571 547 211.708 545.18 211.708 541.54V534.91H211.448C205.121 543.663 196.671 548.04 186.098 548.04C179.858 548.04 174.745 546.437 170.758 543.23C166.771 539.937 164.778 535.517 164.778 529.97C164.778 522.863 167.855 517.663 174.008 514.37C180.248 510.99 188.785 509.3 199.618 509.3H210.538V507.74C210.538 496.907 204.905 491.49 193.638 491.49C188.351 491.49 184.538 492.01 182.198 493.05C179.858 494.003 178.168 494.783 177.128 495.39C176.175 495.997 175.438 496.473 174.918 496.82C173.618 497.86 172.665 497.947 172.058 497.08L168.418 492.53C167.811 491.837 167.898 491.143 168.678 490.45C170.151 488.543 173.185 486.68 177.778 484.86C182.371 483.04 187.788 482.13 194.028 482.13C212.228 482.13 221.328 490.797 221.328 508.13V538.29H228.608C229.648 538.29 230.168 538.81 230.168 539.85V545.44C230.168 546.48 229.648 547 228.608 547ZM210.538 517.1H200.268C195.241 517.1 191.081 517.36 187.788 517.88C184.495 518.4 181.678 519.527 179.338 521.26C177.085 522.993 175.958 525.377 175.958 528.41C175.958 531.443 177.171 533.957 179.598 535.95C182.111 537.857 185.361 538.81 189.348 538.81C197.755 538.81 204.818 535.083 210.538 527.63V517.1ZM309.094 547H296.744C293.017 547 291.154 545.18 291.154 541.54V507.35C291.154 502.323 289.941 498.423 287.514 495.65C285.087 492.877 281.534 491.49 276.854 491.49C270.181 491.49 264.981 494.22 261.254 499.68C260.821 500.2 260.257 501.153 259.564 502.54V538.29H266.454C267.581 538.29 268.144 538.81 268.144 539.85V545.44C268.144 546.48 267.581 547 266.454 547H241.624C240.497 547 239.934 546.48 239.934 545.44V539.85C239.934 538.81 240.497 538.29 241.624 538.29H248.774V491.75H241.624C240.497 491.75 239.934 491.23 239.934 490.19V484.6C239.934 483.56 240.497 483.04 241.624 483.04H256.834C257.961 483.04 258.524 483.56 258.524 484.6L258.264 493.44H258.654C263.161 485.9 270.137 482.13 279.584 482.13C286.517 482.13 291.934 484.167 295.834 488.24C299.734 492.313 301.727 497.817 301.814 504.75V538.29H309.094C310.221 538.29 310.784 538.81 310.784 539.85V545.44C310.784 546.48 310.221 547 309.094 547ZM375.099 516.32H328.299C328.645 523.513 330.899 529.06 335.059 532.96C339.305 536.86 344.072 538.81 349.359 538.81C354.645 538.81 359.152 537.683 362.879 535.43C366.692 533.177 369.249 530.967 370.549 528.8C371.242 527.933 372.022 527.803 372.889 528.41L376.399 531.92C376.919 532.44 377.179 532.917 377.179 533.35C377.179 533.697 376.962 534.173 376.529 534.78C376.182 535.387 375.402 536.34 374.189 537.64C372.975 538.94 371.242 540.413 368.989 542.06C366.822 543.707 363.962 545.093 360.409 546.22C356.942 547.347 353.215 547.91 349.229 547.91C340.129 547.91 332.502 544.92 326.349 538.94C320.282 532.96 317.249 524.943 317.249 514.89C317.249 504.75 320.282 496.777 326.349 490.97C332.415 485.077 339.825 482.13 348.579 482.13C357.419 482.13 364.352 484.99 369.379 490.71C374.405 496.343 376.919 503.97 376.919 513.59C376.919 513.937 376.919 514.283 376.919 514.63C376.919 515.757 376.312 516.32 375.099 516.32ZM366.129 508.39C365.869 503.017 364.179 498.727 361.059 495.52C357.939 492.313 353.779 490.71 348.579 490.71C343.379 490.71 338.915 492.183 335.189 495.13C331.462 498.077 329.252 502.497 328.559 508.39H366.129Z" fill="white"/>
<path d="M145.22 365.92C145.74 366.353 146 366.787 146 367.22C146 367.567 145.783 368.087 145.35 368.78C145.003 369.387 144.18 370.34 142.88 371.64C141.667 372.94 139.933 374.413 137.68 376.06C135.513 377.707 132.653 379.093 129.1 380.22C125.633 381.347 121.907 381.91 117.92 381.91C108.82 381.91 101.193 378.92 95.04 372.94C88.9733 366.96 85.94 358.943 85.94 348.89C85.94 338.75 88.9733 330.777 95.04 324.97C101.193 319.077 108.69 316.13 117.53 316.13C126.37 316.13 133.043 319.337 137.55 325.75H137.68L137.55 318.6C137.55 317.473 138.113 316.91 139.24 316.91H144.18C145.22 316.91 145.74 317.473 145.74 318.6V340.7C145.74 341.74 145.22 342.26 144.18 342.26H138.2C137.16 342.26 136.64 341.74 136.64 340.7V338.49C136.553 335.37 134.777 332.38 131.31 329.52C127.843 326.66 123.423 325.23 118.05 325.23C112.763 325.23 107.91 327.353 103.49 331.6C99.07 335.847 96.86 341.653 96.86 349.02C96.86 356.3 99.0267 362.107 103.36 366.44C107.693 370.687 112.547 372.81 117.92 372.81C123.293 372.81 127.843 371.683 131.57 369.43C135.383 367.09 137.94 364.837 139.24 362.67C139.847 361.63 140.583 361.5 141.45 362.28L145.22 365.92ZM211.658 372.81C205.591 378.877 197.835 381.91 188.388 381.91C178.941 381.91 171.185 378.92 165.118 372.94C159.051 366.873 156.018 358.857 156.018 348.89C156.018 338.837 159.095 330.863 165.248 324.97C171.401 319.077 179.115 316.13 188.388 316.13C197.748 316.13 205.461 319.12 211.528 325.1C217.681 330.993 220.758 338.923 220.758 348.89C220.758 358.77 217.725 366.743 211.658 372.81ZM166.938 348.89C166.938 355.997 169.018 361.76 173.178 366.18C177.338 370.6 182.408 372.81 188.388 372.81C194.455 372.81 199.568 370.6 203.728 366.18C207.888 361.76 209.968 355.997 209.968 348.89C209.968 341.783 207.845 336.063 203.598 331.73C199.438 327.397 194.411 325.23 188.518 325.23C182.625 325.23 177.555 327.397 173.308 331.73C169.061 336.063 166.938 341.783 166.938 348.89ZM255.409 381H230.579C229.453 381 228.889 380.48 228.889 379.44V373.85C228.889 372.81 229.453 372.29 230.579 372.29H237.729V296.37H230.579C229.453 296.37 228.889 295.85 228.889 294.81V289.22C228.889 288.18 229.453 287.66 230.579 287.66H245.009C247.349 287.66 248.519 288.743 248.519 290.91V372.29H255.409C256.536 372.29 257.099 372.81 257.099 373.85V379.44C257.099 380.48 256.536 381 255.409 381ZM293.495 381H268.665C267.538 381 266.975 380.48 266.975 379.44V373.85C266.975 372.81 267.538 372.29 268.665 372.29H275.815V296.37H268.665C267.538 296.37 266.975 295.85 266.975 294.81V289.22C266.975 288.18 267.538 287.66 268.665 287.66H283.095C285.435 287.66 286.605 288.743 286.605 290.91V372.29H293.495C294.622 372.29 295.185 372.81 295.185 373.85V379.44C295.185 380.48 294.622 381 293.495 381ZM368.764 381H357.454C353.727 381 351.864 379.18 351.864 375.54V368.91H351.604C345.277 377.663 336.827 382.04 326.254 382.04C320.014 382.04 314.901 380.437 310.914 377.23C306.927 373.937 304.934 369.517 304.934 363.97C304.934 356.863 308.011 351.663 314.164 348.37C320.404 344.99 328.941 343.3 339.774 343.3H350.694V341.74C350.694 330.907 345.061 325.49 333.794 325.49C328.507 325.49 324.694 326.01 322.354 327.05C320.014 328.003 318.324 328.783 317.284 329.39C316.331 329.997 315.594 330.473 315.074 330.82C313.774 331.86 312.821 331.947 312.214 331.08L308.574 326.53C307.967 325.837 308.054 325.143 308.834 324.45C310.307 322.543 313.341 320.68 317.934 318.86C322.527 317.04 327.944 316.13 334.184 316.13C352.384 316.13 361.484 324.797 361.484 342.13V372.29H368.764C369.804 372.29 370.324 372.81 370.324 373.85V379.44C370.324 380.48 369.804 381 368.764 381ZM350.694 351.1H340.424C335.397 351.1 331.237 351.36 327.944 351.88C324.651 352.4 321.834 353.527 319.494 355.26C317.241 356.993 316.114 359.377 316.114 362.41C316.114 365.443 317.327 367.957 319.754 369.95C322.267 371.857 325.517 372.81 329.504 372.81C337.911 372.81 344.974 369.083 350.694 361.63V351.1ZM407.656 410.25H381.526C380.4 410.25 379.836 409.73 379.836 408.69V403.1C379.836 402.06 380.4 401.54 381.526 401.54H388.806V325.75H381.786C380.66 325.75 380.096 325.23 380.096 324.19V318.6C380.096 317.56 380.66 317.04 381.786 317.04H396.996C398.123 317.04 398.686 317.56 398.686 318.6L398.556 328.87H398.686C400.333 325.317 402.976 322.327 406.616 319.9C410.343 317.387 414.893 316.13 420.266 316.13C429.02 316.13 436.083 319.12 441.456 325.1C446.83 330.993 449.516 338.88 449.516 348.76C449.516 358.553 446.873 366.527 441.586 372.68C436.3 378.833 429.236 381.91 420.396 381.91C415.023 381.91 410.516 380.697 406.876 378.27C403.323 375.757 400.766 372.723 399.206 369.17H398.816C399.076 371.943 399.206 373.937 399.206 375.15V401.54H407.656C408.783 401.54 409.346 402.06 409.346 403.1V408.69C409.346 409.73 408.783 410.25 407.656 410.25ZM398.946 349.28C398.946 356.82 400.896 362.627 404.796 366.7C408.783 370.773 413.55 372.81 419.096 372.81C424.73 372.81 429.41 370.643 433.136 366.31C436.95 361.89 438.856 356.127 438.856 349.02C438.856 341.827 436.95 336.063 433.136 331.73C429.41 327.397 424.73 325.23 419.096 325.23C413.463 325.23 408.696 327.353 404.796 331.6C400.896 335.847 398.946 341.74 398.946 349.28ZM488.042 381.91C482.236 381.91 477.599 380.827 474.132 378.66C470.666 376.493 468.499 374.457 467.632 372.55H467.372C467.546 376.797 467.632 379.05 467.632 379.31C467.632 380.437 467.026 381 465.812 381H461.392C460.266 381 459.702 380.437 459.702 379.31V359.81C459.702 358.683 460.266 358.12 461.392 358.12H466.462C467.676 358.12 468.282 358.683 468.282 359.81V362.41C469.149 365.01 470.969 367.393 473.742 369.56C477.036 372.16 481.152 373.46 486.092 373.46C495.799 373.46 500.652 370.08 500.652 363.32C500.652 360.98 499.309 359.117 496.622 357.73C493.936 356.257 490.642 355.043 486.742 354.09C482.929 353.137 479.116 352.053 475.302 350.84C471.489 349.627 468.239 347.677 465.552 344.99C462.866 342.217 461.522 338.75 461.522 334.59C461.522 328.957 463.559 324.493 467.632 321.2C471.706 317.82 476.906 316.13 483.232 316.13C491.812 316.13 497.966 318.643 501.692 323.67H501.952C501.779 320.55 501.692 318.947 501.692 318.86C501.692 317.733 502.256 317.17 503.382 317.17H507.542C508.669 317.17 509.232 317.733 509.232 318.86V336.93C509.232 338.057 508.669 338.62 507.542 338.62H502.472C501.259 338.62 500.652 338.057 500.652 336.93V335.11C500.652 332.77 499.266 330.473 496.492 328.22C493.806 325.88 490.296 324.71 485.962 324.71C481.629 324.71 478.249 325.62 475.822 327.44C473.396 329.26 472.182 331.643 472.182 334.59C472.182 337.45 473.526 339.703 476.212 341.35C478.986 342.91 482.322 344.167 486.222 345.12C490.122 345.987 494.022 346.983 497.922 348.11C501.822 349.237 505.116 351.1 507.802 353.7C510.576 356.3 511.962 359.897 511.962 364.49C511.962 369.083 509.969 373.157 505.982 376.71C502.082 380.177 496.102 381.91 488.042 381.91ZM580.255 350.32H533.455C533.802 357.513 536.055 363.06 540.215 366.96C544.462 370.86 549.228 372.81 554.515 372.81C559.802 372.81 564.308 371.683 568.035 369.43C571.848 367.177 574.405 364.967 575.705 362.8C576.398 361.933 577.178 361.803 578.045 362.41L581.555 365.92C582.075 366.44 582.335 366.917 582.335 367.35C582.335 367.697 582.118 368.173 581.685 368.78C581.338 369.387 580.558 370.34 579.345 371.64C578.132 372.94 576.398 374.413 574.145 376.06C571.978 377.707 569.118 379.093 565.565 380.22C562.098 381.347 558.372 381.91 554.385 381.91C545.285 381.91 537.658 378.92 531.505 372.94C525.438 366.96 522.405 358.943 522.405 348.89C522.405 338.75 525.438 330.777 531.505 324.97C537.572 319.077 544.982 316.13 553.735 316.13C562.575 316.13 569.508 318.99 574.535 324.71C579.562 330.343 582.075 337.97 582.075 347.59C582.075 347.937 582.075 348.283 582.075 348.63C582.075 349.757 581.468 350.32 580.255 350.32ZM571.285 342.39C571.025 337.017 569.335 332.727 566.215 329.52C563.095 326.313 558.935 324.71 553.735 324.71C548.535 324.71 544.072 326.183 540.345 329.13C536.618 332.077 534.408 336.497 533.715 342.39H571.285Z" fill="#6FC1B3"/>
</svg>
